<svg width="32" height="32" viewBox="0 0 32 32" fill="none" xmlns="http://www.w3.org/2000/svg">
  <!-- Background circle -->
  <circle cx="16" cy="16" r="16" fill="#1e3a8a"/>
  
  <!-- Waiter figure -->
  <g transform="translate(6, 4)">
    <!-- Head -->
    <circle cx="10" cy="4" r="2.5" fill="#f8fafc" stroke="#1e293b" stroke-width="0.5"/>
    
    <!-- Body -->
    <rect x="8.5" y="6" width="3" height="6" rx="1.5" fill="#1e293b"/>
    
    <!-- Bow tie -->
    <polygon points="9.2,7.5 10.8,7.5 10,8.5" fill="#dc2626"/>
    
    <!-- Arms -->
    <rect x="6.5" y="7" width="2" height="1" rx="0.5" fill="#1e293b"/>
    <rect x="11.5" y="7" width="2" height="1" rx="0.5" fill="#1e293b"/>
    
    <!-- Phone/device -->
    <rect x="4" y="6.5" width="2.5" height="4" rx="0.3" fill="#0ea5e9" stroke="#1e293b" stroke-width="0.3"/>
    <rect x="4.3" y="7" width="1.9" height="2.5" rx="0.1" fill="#f8fafc"/>
    <circle cx="5.25" cy="10" r="0.2" fill="#22c55e"/>
    
    <!-- Hourglass -->
    <g transform="translate(14, 6)">
      <rect x="0" y="0" width="2" height="0.5" rx="0.1" fill="#1e293b"/>
      <path d="M0.2 0.5 L1.8 0.5 L1.3 2 L0.7 2 Z" fill="none" stroke="#1e293b" stroke-width="0.3"/>
      <path d="M0.7 2 L1.3 2 L1.8 3.5 L0.2 3.5 Z" fill="none" stroke="#1e293b" stroke-width="0.3"/>
      <rect x="0" y="3.5" width="2" height="0.5" rx="0.1" fill="#1e293b"/>
      <path d="M0.3 0.8 Q1 1.5 1.7 0.8" fill="#f8fafc"/>
    </g>
  </g>
</svg>